# xmcd
#
# Track frame offsets:
#	150
#	23070
#	41745
#	57837
#	76515
#	95075
#	113512
#	132810
#	145310
#	160850
#	189597
#	207252
#	227290
#	242377
#
# Disc length: 3590 seconds
#
# Revision: 2
# Processed by: cddbd v1.5.2PL0 Copyright (c) Steve Scherf et al.
# Submitted via: EasyCDDAExtractor 11.1.0.1
#
DISCID=a70e040e
DTITLE=Little Charlie And The Nightcats - That's Big!
DYEAR=2002
DGENRE=Blues
TTITLE0=Real Love
TTITLE1=Weekend Off
TTITLE2=Desperate Man
TTITLE3=Livin' Good
TTITLE4=That's Big
TTITLE5=Bluto's Back
TTITLE6=I'll Bet I Never Cross Your Mind
TTITLE7=I Know She Used To Be Your Woman
TTITLE8=Money Must Think I'm Dead (#2)
TTITLE9=Coastin' Hank
TTITLE10=It Better Get Better
TTITLE11=Bayview Jump
TTITLE12=Steady Rollin' Man
TTITLE13=Go On If You're Goin'
EXTD=YEAR: 2002 ID3G: 0
EXTT0=
EXTT1=
EXTT2=
EXTT3=
EXTT4=
EXTT5=
EXTT6=
EXTT7=
EXTT8=
EXTT9=
EXTT10=
EXTT11=
EXTT12=
EXTT13=
PLAYORDER=
